<?xml version="1.0" encoding="UTF-8" standalone="no"?>
<!-- Created with Inkscape (http://www.inkscape.org/) -->
<svg
   xmlns:dc="http://purl.org/dc/elements/1.1/"
   xmlns:cc="http://web.resource.org/cc/"
   xmlns:rdf="http://www.w3.org/1999/02/22-rdf-syntax-ns#"
   xmlns:svg="http://www.w3.org/2000/svg"
   xmlns="http://www.w3.org/2000/svg"
   xmlns:xlink="http://www.w3.org/1999/xlink"
   xmlns:sodipodi="http://sodipodi.sourceforge.net/DTD/sodipodi-0.dtd"
   xmlns:inkscape="http://www.inkscape.org/namespaces/inkscape"
   width="270.00000"
   height="270.00000"
   id="svg2"
   sodipodi:version="0.32"
   inkscape:version="0.44"
   sodipodi:docbase="C:\home\michael\work\fawkez\src\doc\images"
   sodipodi:docname="jcoderz-org.svg"
   inkscape:export-filename="/export/home/mgriffel/Documents/jcoderz-org.png"
   inkscape:export-xdpi="100.00000"
   inkscape:export-ydpi="100.00000">
  <defs
     id="defs4">
    <linearGradient
       id="linearGradient2057">
      <stop
         id="stop2059"
         offset="0.0000000"
         style="stop-color:#3a5e77;stop-opacity:1.0000000;" />
      <stop
         style="stop-color:#4b738e;stop-opacity:0.66666669;"
         offset="0.50000000"
         id="stop2195" />
      <stop
         id="stop2061"
         offset="1.0000000"
         style="stop-color:#3a5e77;stop-opacity:1.0000000;" />
    </linearGradient>
    <linearGradient
       id="linearGradient2035">
      <stop
         style="stop-color:#3a5e77;stop-opacity:1.0000000;"
         offset="0.0000000"
         id="stop2037" />
      <stop
         id="stop2045"
         offset="0.56896549"
         style="stop-color:#1d2f3b;stop-opacity:0.49803922;" />
      <stop
         style="stop-color:#000000;stop-opacity:0;"
         offset="1"
         id="stop2039" />
    </linearGradient>
    <linearGradient
       inkscape:collect="always"
       xlink:href="#linearGradient2057"
       id="linearGradient4143"
       gradientUnits="userSpaceOnUse"
       gradientTransform="matrix(0.457143,0.000000,0.000000,0.449800,43.42857,68.30579)"
       x1="125.71429"
       y1="159.50502"
       x2="127.14283"
       y2="438.07645" />
    <linearGradient
       inkscape:collect="always"
       xlink:href="#linearGradient2057"
       id="linearGradient4195"
       gradientUnits="userSpaceOnUse"
       gradientTransform="matrix(0.457143,0.000000,0.000000,0.449800,43.42857,68.30579)"
       x1="125.71429"
       y1="159.50502"
       x2="127.14283"
       y2="438.07645" />
    <linearGradient
       inkscape:collect="always"
       xlink:href="#linearGradient2057"
       id="linearGradient1410"
       gradientUnits="userSpaceOnUse"
       gradientTransform="matrix(0.457143,0.000000,0.000000,0.449800,43.42857,68.30579)"
       x1="125.71429"
       y1="159.50502"
       x2="127.14283"
       y2="438.07645" />
    <linearGradient
       inkscape:collect="always"
       xlink:href="#linearGradient2057"
       id="linearGradient1430"
       gradientUnits="userSpaceOnUse"
       gradientTransform="matrix(0.857143,0.000000,0.000000,0.843375,-40.57143,-58.49154)"
       x1="125.71429"
       y1="159.50502"
       x2="127.14283"
       y2="438.07645" />
    <linearGradient
       inkscape:collect="always"
       xlink:href="#linearGradient2057"
       id="linearGradient1426"
       gradientUnits="userSpaceOnUse"
       gradientTransform="matrix(0.857143,0,0,0.843375,-40.57143,-58.49154)"
       x1="125.71429"
       y1="159.50502"
       x2="127.14283"
       y2="438.07645" />
  </defs>
  <sodipodi:namedview
     id="base"
     pagecolor="#ffffff"
     bordercolor="#666666"
     borderopacity="1.0"
     inkscape:pageopacity="0.0"
     inkscape:pageshadow="2"
     inkscape:zoom="2.1"
     inkscape:cx="178"
     inkscape:cy="121.82197"
     inkscape:document-units="px"
     inkscape:current-layer="layer1"
     inkscape:window-width="1113"
     inkscape:window-height="796"
     inkscape:window-x="164"
     inkscape:window-y="0" />
  <metadata
     id="metadata7">
    <rdf:RDF>
      <cc:Work
         rdf:about="">
        <dc:format>image/svg+xml</dc:format>
        <dc:type
           rdf:resource="http://purl.org/dc/dcmitype/StillImage" />
      </cc:Work>
    </rdf:RDF>
  </metadata>
  <g
     inkscape:label="Layer 1"
     id="layer1"
     inkscape:groupmode="layer">
    <g
       id="g1962"
       inkscape:export-filename="C:\home\michael\work\fawkez\src\doc\images\jcoderz-org.png"
       inkscape:export-xdpi="100"
       inkscape:export-ydpi="100">
      <path
         id="text2197"
         d="M 45.407376,32.306149 L 45.407376,36.740002 L 36.665751,36.740002 L 36.665751,32.306149 L 45.407376,32.306149 M 45.407376,38.442097 L 45.407376,60.506296 C 45.407366,63.097967 45.35133,64.856096 45.239268,65.78069 C 45.141195,66.691275 44.818988,67.489788 44.272646,68.176232 C 43.740295,68.87668 43.018832,69.395013 42.108254,69.731232 C 41.21167,70.067444 39.859801,70.235553 38.052643,70.235557 L 34.774534,70.235557 L 34.774534,65.78069 C 35.783183,65.780691 36.350547,65.668619 36.47663,65.444474 C 36.602709,65.220331 36.66575,63.81943 36.665751,61.241769 L 36.665751,38.442097 L 45.407376,38.442097 M 69.341779,47.141695 L 60.495085,47.141695 L 60.495085,41.215882 C 60.495072,39.4928 60.397009,38.421111 60.200896,38.000814 C 60.018766,37.566562 59.6055,37.349423 58.961099,37.349394 C 58.232618,37.349423 57.770321,37.60859 57.574206,38.126894 C 57.378069,38.645256 57.280006,39.765976 57.280017,41.489058 L 57.280017,57.291227 C 57.280006,58.944298 57.378069,60.022991 57.574206,60.527309 C 57.770321,61.031639 58.211605,61.283801 58.898058,61.283796 C 59.556469,61.283801 59.983743,61.031639 60.179883,60.527309 C 60.390005,60.022991 60.495072,58.839231 60.495085,56.976024 L 60.495085,52.710279 L 69.341779,52.710279 L 69.341779,54.034131 C 69.341756,57.550402 69.089594,60.044004 68.585291,61.514944 C 68.094955,62.985895 66.995248,64.274723 65.286169,65.381433 C 63.591062,66.488145 61.496716,67.0415 59.003125,67.041501 C 56.411449,67.0415 54.275076,66.572199 52.594001,65.633595 C 50.912915,64.694993 49.7992,63.39916 49.252851,61.746094 C 48.706498,60.079027 48.433323,57.57842 48.433324,54.244266 L 48.433324,44.30487 C 48.433323,41.853317 48.517376,40.018138 48.685486,38.799327 C 48.853592,37.566562 49.350912,36.382802 50.177446,35.248042 C 51.017983,34.113344 52.173726,33.223772 53.644677,32.579325 C 55.129624,31.920935 56.831719,31.591724 58.750963,31.591689 C 61.356625,31.591724 63.507007,32.096048 65.202114,33.104662 C 66.897185,34.113344 68.010901,35.374154 68.543265,36.887097 C 69.075585,38.386089 69.341756,40.725592 69.341779,43.905613 L 69.341779,47.141695 M 91.511043,48.234399 L 91.511043,55.063794 C 91.511028,57.571416 91.384943,59.4136 91.132803,60.59035 C 90.880618,61.753103 90.341275,62.845805 89.51476,63.868459 C 88.688207,64.87711 87.623523,65.626591 86.320701,66.116906 C 85.031864,66.593212 83.546907,66.831365 81.865837,66.831366 C 79.988624,66.831365 78.398599,66.628235 77.095769,66.221974 C 75.792923,65.801704 74.777272,65.178303 74.048808,64.35177 C 73.334345,63.511232 72.823017,62.502584 72.514821,61.325823 C 72.206621,60.135063 72.052522,58.35592 72.052523,55.988389 L 72.052523,48.843791 C 72.052522,46.252143 72.332702,44.227843 72.893063,42.770883 C 73.453422,41.313971 74.46207,40.144218 75.919008,39.261625 C 77.375941,38.379085 79.239137,37.937801 81.508607,37.937773 C 83.413822,37.937801 85.045873,38.224986 86.40476,38.799327 C 87.777626,39.359715 88.835301,40.095188 89.577803,41.005747 C 90.320259,41.916357 90.824583,42.854961 91.090777,43.821559 C 91.370934,44.788203 91.511028,46.259148 91.511043,48.234399 M 83.021581,46.133046 C 83.021566,44.704149 82.944522,43.807573 82.790435,43.443316 C 82.636325,43.065096 82.307112,42.875974 81.802795,42.875951 C 81.298462,42.875974 80.962248,43.065096 80.794145,43.443316 C 80.626027,43.807573 80.541975,44.704149 80.541983,46.133046 L 80.541983,58.720146 C 80.541975,60.037 80.626027,60.898554 80.794145,61.304809 C 80.962248,61.697067 81.291454,61.893193 81.781786,61.893188 C 82.286095,61.893193 82.615309,61.711076 82.769419,61.346837 C 82.937514,60.982608 83.021566,60.198103 83.021581,58.993322 L 83.021581,46.133046 M 113.63828,32.306149 L 113.63828,66.327041 L 105.14882,66.327041 L 105.14882,64.309744 C 104.33628,65.150285 103.48174,65.780691 102.58517,66.20096 C 101.68858,66.62123 100.74998,66.831365 99.769359,66.831366 C 98.452505,66.831365 97.31077,66.488145 96.344154,65.801704 C 95.37753,65.101254 94.754129,64.295737 94.473949,63.385149 C 94.207778,62.474566 94.074693,60.989612 94.074693,58.930282 L 94.074693,45.880884 C 94.074693,43.737528 94.207778,42.217551 94.473949,41.32095 C 94.754129,40.424399 95.384538,39.639894 96.365171,38.967435 C 97.345795,38.281022 98.515548,37.937801 99.874427,37.937773 C 100.9251,37.937801 101.88471,38.126922 102.75328,38.505138 C 103.63584,38.883409 104.43435,39.450773 105.14882,40.207233 L 105.14882,32.306149 L 113.63828,32.306149 M 105.14882,45.460614 C 105.14881,44.437977 105.05775,43.751537 104.87564,43.401288 C 104.70752,43.051086 104.3643,42.875974 103.84598,42.875951 C 103.34165,42.875974 102.99843,43.037078 102.81632,43.359262 C 102.6482,43.667482 102.56415,44.367933 102.56415,45.460614 L 102.56415,59.119403 C 102.56415,60.254139 102.6482,61.003621 102.81632,61.36785 C 102.98442,61.71808 103.30663,61.893193 103.78294,61.893188 C 104.32928,61.893193 104.69351,61.697067 104.87564,61.304809 C 105.05775,60.898554 105.14881,59.917924 105.14882,58.362916 L 105.14882,45.460614 M 135.91262,52.878387 L 124.92255,52.878387 L 124.92255,58.909268 C 124.92253,60.170086 125.01359,60.982608 125.19572,61.346837 C 125.37783,61.711076 125.72805,61.893193 126.24639,61.893188 C 126.8908,61.893193 127.31807,61.65504 127.52822,61.178728 C 127.75235,60.688419 127.86442,59.749815 127.86444,58.362916 L 127.86444,54.68555 L 135.91262,54.68555 L 135.91262,56.744875 C 135.91259,58.467992 135.80053,59.791843 135.5764,60.716431 C 135.36624,61.641031 134.86192,62.628665 134.06343,63.679338 C 133.26489,64.730015 132.24924,65.521524 131.01646,66.053866 C 129.79767,66.572199 128.26368,66.831365 126.41451,66.831366 C 124.62134,66.831365 123.03833,66.572199 121.66545,66.053866 C 120.29256,65.535533 119.22087,64.828079 118.45038,63.9315 C 117.69389,63.020918 117.16856,62.026278 116.87437,60.947579 C 116.58017,59.854883 116.43308,58.271866 116.43309,56.198524 L 116.43309,48.06629 C 116.43308,45.628742 116.76229,43.70951 117.42072,42.308586 C 118.07914,40.893701 119.15783,39.815007 120.6568,39.072503 C 122.15575,38.316044 123.87887,37.937801 125.82613,37.937773 C 128.20764,37.937801 130.16891,38.393093 131.70992,39.303651 C 133.26489,40.200255 134.35059,41.398025 134.96701,42.896964 C 135.5974,44.381941 135.91259,46.476287 135.91262,49.180007 L 135.91262,52.878387 M 127.40214,48.339466 L 127.40214,46.301155 C 127.40213,44.858247 127.32508,43.926649 127.17099,43.506356 C 127.01688,43.086109 126.70168,42.875974 126.22539,42.875951 C 125.63699,42.875974 125.27276,43.058091 125.13268,43.422302 C 124.99258,43.77255 124.92253,44.732167 124.92255,46.301155 L 124.92255,48.339466 L 127.40214,48.339466 M 147.19688,38.442097 L 146.86066,42.098451 C 148.09345,39.478791 149.87959,38.0919 152.21911,37.937773 L 152.21911,47.751088 C 150.6641,47.751106 149.52236,47.961241 148.79391,48.381494 C 148.06543,48.801781 147.61714,49.390159 147.44904,50.146629 C 147.28093,50.889123 147.19687,52.61223 147.19688,55.315956 L 147.19688,66.327041 L 138.70741,66.327041 L 138.70741,38.442097 L 147.19688,38.442097 M 169.13499,32.306149 L 169.13499,39.11453 L 162.53675,59.518661 L 169.13499,59.518661 L 169.13499,66.327041 L 152.82851,66.327041 L 152.82851,61.388864 L 159.63688,39.11453 L 153.62702,39.11453 L 153.62702,32.306149 L 169.13499,32.306149 M 177.72952,59.392579 L 177.72952,66.327041 L 171.3204,66.327041 L 171.3204,59.392579 L 177.72952,59.392579 M 199.26839,48.234399 L 199.26839,55.063794 C 199.26837,57.571416 199.14229,59.4136 198.89014,60.59035 C 198.63796,61.753103 198.09861,62.845805 197.27211,63.868459 C 196.44555,64.87711 195.38087,65.626591 194.07805,66.116906 C 192.7892,66.593212 191.30425,66.831365 189.62318,66.831366 C 187.74596,66.831365 186.15594,66.628235 184.85311,66.221974 C 183.55027,65.801704 182.53462,65.178303 181.80615,64.35177 C 181.09169,63.511232 180.58036,62.502584 180.27217,61.325823 C 179.96396,60.135063 179.80987,58.35592 179.80987,55.988389 L 179.80987,48.843791 C 179.80987,46.252143 180.09005,44.227843 180.6504,42.770883 C 181.21076,41.313971 182.21941,40.144218 183.67635,39.261625 C 185.13329,38.379085 186.99648,37.937801 189.26595,37.937773 C 191.17117,37.937801 192.80321,38.224986 194.1621,38.799327 C 195.53497,39.359715 196.59265,40.095188 197.33514,41.005747 C 198.0776,41.916357 198.58193,42.854961 198.84811,43.821559 C 199.12828,44.788203 199.26837,46.259148 199.26839,48.234399 M 190.77893,46.133046 C 190.77891,44.704149 190.70186,43.807573 190.54777,43.443316 C 190.39366,43.065096 190.06445,42.875974 189.56014,42.875951 C 189.05581,42.875974 188.71959,43.065096 188.55149,43.443316 C 188.38337,43.807573 188.29932,44.704149 188.29933,46.133046 L 188.29933,58.720146 C 188.29932,60.037 188.38337,60.898554 188.55149,61.304809 C 188.71959,61.697067 189.0488,61.893193 189.53912,61.893188 C 190.04344,61.893193 190.37265,61.711076 190.52676,61.346837 C 190.69486,60.982608 190.77891,60.198103 190.77893,58.993322 L 190.77893,46.133046 M 210.57366,38.442097 L 210.23745,42.098451 C 211.47023,39.478791 213.25637,38.0919 215.59589,37.937773 L 215.59589,47.751088 C 214.04088,47.751106 212.89914,47.961241 212.17069,48.381494 C 211.44221,48.801781 210.99392,49.390159 210.82582,50.146629 C 210.65771,50.889123 210.57365,52.61223 210.57366,55.315956 L 210.57366,66.327041 L 202.0842,66.327041 L 202.0842,38.442097 L 210.57366,38.442097 M 236.75651,38.442097 L 236.75651,59.917917 C 236.75649,62.817787 236.68644,64.694993 236.54637,65.549541 C 236.42027,66.390082 235.95097,67.279653 235.13847,68.218258 C 234.32593,69.170869 233.1912,69.892332 231.73428,70.382652 C 230.29134,70.886972 228.47017,71.139135 226.27076,71.139135 C 223.56701,71.139135 221.39562,70.676836 219.75657,69.752246 C 218.11752,68.841657 217.26997,67.0415 217.21394,64.35177 L 225.45124,64.35177 C 225.45123,65.584564 225.89952,66.200961 226.7961,66.20096 C 227.4405,66.200961 227.86778,66.011839 228.07793,65.633595 C 228.28805,65.255353 228.39312,64.463844 228.39313,63.259068 L 228.39313,61.157715 C 227.66465,61.816143 226.89415,62.313463 226.08165,62.649675 C 225.28312,62.985895 224.44258,63.154003 223.56002,63.153999 C 222.03303,63.154003 220.77222,62.845805 219.77759,62.229404 C 218.79695,61.613012 218.12452,60.807495 217.76029,59.812849 C 217.39605,58.804208 217.21394,57.37529 217.21394,55.526091 L 217.21394,45.397573 C 217.21394,42.749893 217.69024,40.844669 218.64286,39.681895 C 219.59547,38.519175 221.0454,37.937801 222.99265,37.937773 C 224.05733,37.937801 225.02395,38.15494 225.89252,38.589192 C 226.77507,39.023499 227.55958,39.674917 228.24604,40.54345 L 228.85542,38.442097 L 236.75651,38.442097 M 228.24604,45.838858 C 228.24602,44.564058 228.16897,43.751537 228.01488,43.401288 C 227.87478,43.051086 227.55258,42.875974 227.04826,42.875951 C 226.55794,42.875974 226.20771,43.079104 225.99759,43.485343 C 225.80145,43.877617 225.70339,44.662122 225.7034,45.838858 L 225.7034,55.210888 C 225.70339,56.4577 225.78044,57.270223 225.93454,57.648457 C 226.08864,58.0127 226.41084,58.194817 226.90117,58.194808 C 227.46152,58.194817 227.82575,57.970672 227.99388,57.522376 C 228.16197,57.074096 228.24602,56.058444 228.24604,54.475415 L 228.24604,45.838858"
         style="font-size:56.25px;font-style:normal;font-variant:normal;font-weight:normal;font-stretch:normal;text-align:center;line-height:125%;writing-mode:lr-tb;text-anchor:middle;opacity:1;fill:none;fill-opacity:1;stroke:#000000;stroke-width:1;stroke-linecap:butt;stroke-linejoin:miter;stroke-miterlimit:4;stroke-opacity:1;font-family:Impact;stroke-dasharray:none" />
      <g
         transform="matrix(1.434523,0,0,1.434523,-92.80291,-148.4059)"
         inkscape:export-ydpi="100.00000"
         inkscape:export-xdpi="100.00000"
         inkscape:export-filename="/export/home/mgriffel/Documents/jcoderz-org.png"
         style="opacity:1;stroke:#000000;stroke-width:0.69709581;stroke-miterlimit:4;stroke-dasharray:none;stroke-opacity:1"
         id="g4154">
        <path
           style="opacity:1;fill:#ffffff;fill-opacity:1;stroke:#000000;stroke-width:0.69709581;stroke-miterlimit:4;stroke-dasharray:none;stroke-opacity:1"
           d="M 145.53994,165.15445 C 131.84678,163.68815 121.21145,178.04101 122.18795,190.8411 C 121.97881,199.28092 128.75081,206.1102 137.03668,206.58742 C 142.9695,206.07765 149.78321,213.34087 141.56408,215.97799 C 136.56779,216.84731 125.84321,219.07655 131.24403,226.18966 C 137.00544,230.10541 144.82922,230.12325 151.22096,228.10632 C 147.57877,230.83828 136.51492,227.09749 141.88613,222.77766 C 147.74164,225.31976 154.11538,223.54231 160.25758,224.18054 C 166.66456,224.85734 172.03333,219.09032 178.58112,220.8039 C 183.05626,220.07817 185.06265,226.43893 185.20454,227.39687 C 187.69197,219.81535 194.46901,231.21491 187.7066,232.03969 C 190.06131,228.99479 197.26877,220.366 197.30774,229.25931 C 196.41102,235.17985 185.05579,235.69591 185.65322,239.69088 C 192.55617,238.17384 198.66979,231.80448 199.49241,224.73047 C 200.14388,217.08426 191.27853,211.5277 184.47266,214.59747 C 178.91434,217.14594 171.57464,220.81579 166.26048,215.69744 C 159.15086,210.49651 158.71766,198.11666 166.79757,193.66945 C 173.40032,190.81883 174.19839,199.2679 176.64146,202.62222 C 172.22957,198.69882 179.99026,188.05573 174.06019,188.00803 C 168.43705,191.85569 161.05826,195.28939 160.0263,202.87593 C 156.4694,208.61102 168.40544,214.68461 162.61184,217.70536 C 156.40702,213.98924 156.43633,205.90807 157.86566,199.86354 C 156.10096,197.60532 147.90978,206.49575 151.53423,199.39848 C 156.49092,196.46531 160.09951,189.51061 156.632,184.54265 C 151.9804,185.22807 150.99308,181.12923 151.44743,177.20991 C 151.19885,181.56947 146.48065,193.26762 142.76485,184.94082 C 143.29812,179.23077 145.41904,173.37555 148.86333,168.73741 C 153.54011,162.58704 162.00425,158.9111 169.50187,161.89642 C 165.36291,158.62523 154.01903,159.8963 149.25407,165.25616 C 143.2879,170.32478 143.90736,178.45916 143.35226,185.47952 C 143.43481,190.67554 138.33943,197.92897 133.04963,193.04555 C 127.19825,188.26167 129.24826,179.13494 132.82487,173.56023 C 135.68621,169.33467 140.20343,165.35726 145.53994,165.15445 z "
           id="path111668" />
        <path
           style="opacity:1;fill:#ffffff;fill-opacity:1;stroke:#000000;stroke-width:0.69709581;stroke-miterlimit:4;stroke-dasharray:none;stroke-opacity:1"
           d="M 176.34852,169.63569 C 176.85908,170.14627 176.68765,169.97484 176.34852,169.63569 z M 176.34852,170.75599 C 176.85907,171.26657 176.68765,171.09514 176.34852,170.75599 z M 176.34852,171.87631 C 176.85908,172.38687 176.68764,172.21544 176.34852,171.87631 z M 176.53504,173.93023 L 176.65384,174.16731 L 176.53504,173.93023 z M 176.34852,175.23726 C 171.68577,175.80135 170.60641,187.34174 175.06123,180.50591 C 175.8544,178.86317 176.20566,177.04437 176.34852,175.23726 z "
           id="path111672" />
        <path
           style="opacity:1;fill:#ffffff;fill-opacity:1;stroke:#000000;stroke-width:0.69709581;stroke-miterlimit:4;stroke-dasharray:none;stroke-opacity:1"
           d="M 181.95008,209.96692 C 182.46064,210.47749 182.28922,210.30606 181.95008,209.96692 z M 152.26181,211.08723 C 151.77122,212.0684 151.88369,211.84345 152.26181,211.08723 z M 156.74306,214.44818 C 157.25362,214.95874 157.08219,214.78731 156.74306,214.44818 z M 157.86337,214.44818 C 158.37393,214.95874 158.2025,214.7873 157.86337,214.44818 z "
           id="path111676" />
        <path
           style="opacity:1;fill:#ffffff;fill-opacity:1;stroke:#000000;stroke-width:0.69709581;stroke-miterlimit:4;stroke-dasharray:none;stroke-opacity:1"
           d="M 167.38602,226.21145 C 169.27234,230.54243 175.17782,223.6 168.63196,225.7182 L 167.38602,226.21145 L 167.38602,226.21145 z M 132.09619,230.69268 C 134.67964,238.68943 138.92308,249.62314 148.83312,249.80278 C 154.80906,249.78614 162.23313,251.91836 167.0905,247.59097 C 171.15066,244.06154 165.30331,241.87602 164.87381,240.36498 C 159.70381,238.09885 152.92466,243.58515 147.13782,240.63733 C 144.72361,234.53866 157.05558,237.18258 160.77283,237.22076 C 163.73299,237.88164 172.57451,236.87533 165.0412,236.17622 C 159.03355,236.21368 150.51077,239.43408 146.14854,234.77508 C 151.04875,233.91671 156.55557,236.11184 161.05495,233.99286 C 157.76746,233.79153 151.48306,235.36761 147.15158,233.51087 C 142.18381,232.3578 137.2604,230.60188 132.09619,230.69268 z "
           id="path111688" />
        <path
           style="opacity:1;fill:#ffffff;fill-opacity:1;stroke:#000000;stroke-width:0.69709581;stroke-miterlimit:4;stroke-dasharray:none;stroke-opacity:1"
           d="M 118.09229,254.7794 C 130.96757,262.38936 146.49957,261.96044 160.94635,262.40818 C 172.6198,261.8913 184.15769,259.86293 195.59984,257.5971 C 191.11559,253.52529 183.21741,260.9666 180.34333,256.72636 C 183.35494,255.88826 188.97686,251.74147 182.42542,252.94067 C 164.6049,256.16649 146.49747,253.4037 128.57941,253.33077 C 129.3452,249.141 125.58342,244.69408 121.12012,248.41418 C 119.22689,249.91843 117.90471,252.31189 118.09229,254.7794 z "
           id="path111692" />
      </g>
      <g
         transform="matrix(1.434523,0,0,1.434523,-94.5237,-148.4059)"
         inkscape:export-ydpi="100.00000"
         inkscape:export-xdpi="100.00000"
         inkscape:export-filename="/export/home/mgriffel/Documents/jcoderz-org.png"
         id="g3609" />
      <g
         transform="matrix(1.434523,0,0,1.434523,-94.5237,-148.4059)"
         inkscape:export-ydpi="100.00000"
         inkscape:export-xdpi="100.00000"
         inkscape:export-filename="/export/home/mgriffel/Documents/jcoderz-org.png"
         id="g3745" />
    </g>
  </g>
</svg>
